<svg width="41" height="42" fill="none" xmlns="http://www.w3.org/2000/svg"><path d="M37.145 10.62a13.69 13.69 0 0 1-3.931 1.056 6.809 6.809 0 0 0 3.002-3.762 13.475 13.475 0 0 1-4.33 1.649 6.81 6.81 0 0 0-4.988-2.158 6.823 6.823 0 0 0-6.825 6.829c0 .528.064 1.056.168 1.565A19.396 19.396 0 0 1 6.168 8.654 6.777 6.777 0 0 0 5.24 12.1a6.83 6.83 0 0 0 3.042 5.688 6.884 6.884 0 0 1-3.086-.869v.084a6.827 6.827 0 0 0 5.471 6.7c-.587.153-1.19.231-1.797.233-.444 0-.864-.044-1.289-.104a6.837 6.837 0 0 0 6.38 4.735 13.679 13.679 0 0 1-8.473 2.918c-.572 0-1.1-.02-1.65-.084a19.328 19.328 0 0 0 10.484 3.062c12.552 0 19.42-10.399 19.42-19.425 0-.296 0-.592-.02-.888a14.702 14.702 0 0 0 3.422-3.53Z" fill="#11B5E4"/></svg>